<svg width="1136" height="583" viewBox="0 0 1136 583" fill="none" xmlns="http://www.w3.org/2000/svg">
<g id="scene">
<path id="slonce" d="M240 261C287.496 261 326 222.496 326 175C326 127.504 287.496 89 240 89C192.504 89 154 127.504 154 175C154 222.496 192.504 261 240 261Z" fill="#FF6584"/>
<g id="gory">
<path id="Vector" d="M1101.4 547.269C1096.34 551.82 1091.02 556.071 1085.47 559.999C1072.29 569.27 1058.04 576.928 1043.04 582.809C980.69 581.309 889.03 573.659 773.33 569.579C764.7 566.63 755.873 563.436 746.85 559.999C734.91 555.449 722.627 550.449 710 544.999C657.56 522.339 603.72 507.609 550.39 498.809C538.93 496.919 527.5 495.299 516.1 493.949C275.28 465.149 53.2 549.769 27.48 560H25L40.82 529.36L310 8L372.95 169.62L393.04 221.21L448.41 145.23L477 106L607.2 255.27L644 174L898.78 381.92L912.99 393.51L927.37 405.25L931.95 408.99L1068.16 520.149L1101.4 547.269Z" fill="#F2F2F2"/>
<path id="Vector_2" opacity="0.1" d="M449 143.229L477.589 121L607.589 271L475.589 143L449 143.229Z" fill="black"/>
<path id="Vector_3" opacity="0.1" d="M550.35 496.6C538.89 494.71 527.46 493.09 516.06 491.74L393 219L550.35 496.6Z" fill="black"/>
<path id="Vector_4" d="M1100.4 539.792C1095.34 544.343 1090.02 548.594 1084.47 552.522C1071.29 561.793 1057.04 569.451 1042.04 575.332C979.69 573.832 888.03 566.182 772.33 562.102C763.7 559.153 754.873 555.959 745.85 552.522C733.91 547.972 721.627 542.972 709 537.522C656.56 514.862 602.72 500.132 549.39 491.332C537.93 489.442 526.5 487.822 515.1 486.472C274.28 457.672 52.2 542.292 26.48 552.523H24L39.82 521.883L309 0.522522L371.95 162.143L392.04 213.733L447.41 137.753L476 98.5225L606.2 247.793L643 166.523L897.78 374.443L911.99 386.033L926.37 397.773L930.95 401.513L1067.16 512.672L1100.4 539.792Z" fill="#F2F2F2"/>
<path id="Vector_5" opacity="0.1" d="M549.39 491.333C537.93 489.443 526.5 487.823 515.1 486.473L392.04 213.732L549.39 491.333Z" fill="black"/>
<path id="Vector_6" opacity="0.1" d="M447.411 137.752L476 115.523L606 265.523L474 137.523L447.411 137.752Z" fill="black"/>
<path id="Vector_7" opacity="0.1" d="M604 250L863.803 498.734L828.267 507.115L604 250Z" fill="black"/>
<path id="Vector_8" opacity="0.1" d="M284 99L310 42L346 125L315 65L284 99Z" fill="black"/>
<path id="Vector_9" d="M1136 553.023C1136 572.393 1103.04 576.803 1042.04 575.333C979.69 573.833 888.03 566.182 772.33 562.102C728.57 560.562 681.36 559.523 631 559.523C317.3 559.523 0 599.693 0 553.023C0 542.023 14.12 531.523 39.82 521.883C116.02 493.303 294 472.372 507.22 469.002C516.92 468.842 526.69 468.726 536.53 468.653C546.95 468.563 557.44 468.519 568 468.523C652.77 468.523 733.21 471.282 805.46 476.232C805.69 476.252 805.91 476.272 806.14 476.283C811.94 476.683 817.683 477.096 823.37 477.523C829.58 477.993 835.723 478.476 841.8 478.973C843.05 479.073 844.3 479.172 845.54 479.283C846.44 479.352 847.34 479.433 848.23 479.513C849.87 479.643 851.51 479.783 853.13 479.933C853.187 479.931 853.244 479.934 853.3 479.943C856.28 480.203 859.24 480.463 862.18 480.723C862.49 480.753 862.8 480.783 863.11 480.802C948.56 488.552 1019.18 499.562 1067.16 512.672C1111.06 524.663 1136 538.403 1136 553.023Z" fill="#3F3D56"/>
</g>
<g id="rosliny">
<path id="Vector_10" d="M100 410.834C100 474.85 140.16 526.651 189.791 526.651L100 410.834Z" fill="#3F3D56"/>
<path id="Vector_11" d="M189.791 526.651C189.791 461.916 234.607 409.533 289.992 409.533L189.791 526.651Z" fill="#638EFF"/>
<path id="Vector_12" d="M132.533 416.637C132.533 477.446 158.142 526.651 189.791 526.651L132.533 416.637Z" fill="#638EFF"/>
<path id="Vector_13" d="M189.791 526.651C189.791 443.934 241.592 377 305.608 377L189.791 526.651Z" fill="#3F3D56"/>
<path id="Vector_14" d="M170.901 527.468C170.901 527.468 183.635 527.076 187.473 524.343C191.31 521.61 207.06 518.347 208.012 522.73C208.965 527.113 227.149 544.527 212.773 544.643C198.396 544.759 179.368 542.404 175.538 540.071C171.708 537.738 170.901 527.468 170.901 527.468Z" fill="#A8A8A8"/>
<path id="Vector_15" opacity="0.2" d="M213.029 543.118C198.653 543.234 179.625 540.878 175.795 538.545C172.878 536.768 171.715 530.393 171.326 527.451C171.057 527.463 170.901 527.468 170.901 527.468C170.901 527.468 171.708 537.738 175.538 540.071C179.368 542.404 198.396 544.759 212.773 544.643C216.923 544.61 218.356 543.133 218.277 540.947C217.701 542.268 216.118 543.093 213.029 543.118Z" fill="black"/>
<path id="Vector_16" d="M792 401.834C792 465.85 832.16 517.651 881.791 517.651L792 401.834Z" fill="#3F3D56"/>
<path id="Vector_17" d="M881.791 517.651C881.791 452.916 926.607 400.533 981.992 400.533L881.791 517.651Z" fill="#638EFF"/>
<path id="Vector_18" d="M824.533 407.637C824.533 468.446 850.142 517.651 881.791 517.651L824.533 407.637Z" fill="#638EFF"/>
<path id="Vector_19" d="M881.791 517.651C881.791 434.934 933.592 368 997.608 368L881.791 517.651Z" fill="#3F3D56"/>
<path id="Vector_20" d="M862.901 518.468C862.901 518.468 875.635 518.076 879.473 515.343C883.31 512.61 899.06 509.347 900.012 513.73C900.964 518.113 919.149 535.527 904.773 535.643C890.396 535.759 871.368 533.404 867.538 531.071C863.708 528.738 862.901 518.468 862.901 518.468Z" fill="#A8A8A8"/>
<path id="Vector_21" opacity="0.2" d="M905.029 534.118C890.653 534.234 871.625 531.878 867.795 529.545C864.878 527.768 863.715 521.393 863.326 518.451C863.057 518.463 862.901 518.468 862.901 518.468C862.901 518.468 863.708 528.738 867.538 531.071C871.368 533.404 890.396 535.759 904.773 535.643C908.923 535.61 910.356 534.133 910.277 531.947C909.701 533.268 908.118 534.093 905.029 534.118Z" fill="black"/>
</g>
<g id="kobieta">
<path id="Vector_22" d="M499 368.479H481V400.566H499V368.479Z" fill="#3F3D56"/>
<path id="Vector_23" d="M490 380.609C491.945 380.609 493.522 379.033 493.522 377.088C493.522 375.143 491.945 373.566 490 373.566C488.055 373.566 486.478 375.143 486.478 377.088C486.478 379.033 488.055 380.609 490 380.609Z" fill="#F2F2F2"/>
<path id="Vector_24" d="M492.182 341.059C492.182 341.059 486.704 372.834 496.565 373.93C506.426 375.025 497.661 339.963 497.661 339.963L492.182 341.059Z" fill="#FFB9B9"/>
<path id="Vector_25" d="M498.756 232.586C498.756 232.586 487.252 341.607 490.539 343.25C493.826 344.894 502.591 347.085 504.235 345.442C505.878 343.798 512.453 276.413 512.453 276.413L507.522 241.351L498.756 232.586Z" fill="#575A89"/>
<path id="Vector_26" opacity="0.1" d="M498.756 232.586C498.756 232.586 487.252 341.607 490.539 343.25C493.826 344.894 502.591 347.085 504.235 345.442C505.878 343.798 512.453 276.413 512.453 276.413L507.522 241.351L498.756 232.586Z" fill="black"/>
<path id="Vector_27" d="M554.363 183.554H519.848V220.807H554.363V183.554Z" fill="#2F2E41"/>
<path id="Vector_28" d="M527.792 200.263C527.792 200.263 526.697 224.368 519.027 226.012C511.357 227.655 526.149 255.595 526.149 255.595L549.158 253.404L554.637 220.533C554.637 220.533 542.036 218.342 546.419 201.359L527.792 200.263Z" fill="#FFB9B9"/>
<path id="Vector_29" opacity="0.1" d="M527.792 200.263C527.792 200.263 526.697 224.368 519.027 226.012C511.357 227.655 526.149 255.595 526.149 255.595L549.158 253.404L554.637 220.533C554.637 220.533 542.036 218.342 546.419 201.359L527.792 200.263Z" fill="black"/>
<path id="Vector_30" d="M528.888 475.829L530.531 485.142L540.393 482.951L538.201 473.637L528.888 475.829Z" fill="#FFB9B9"/>
<path id="Vector_31" d="M560.115 461.585L556.828 471.446L567.237 476.924L567.785 468.707L560.115 461.585Z" fill="#FFB9B9"/>
<path id="Vector_32" d="M517.383 313.667C517.383 313.667 504.235 352.016 506.974 370.095C509.713 388.174 520.67 474.185 520.67 474.185C520.67 474.185 533.271 482.403 540.941 473.089L535.462 399.678C535.462 399.678 536.558 355.303 540.94 359.686C545.323 364.068 562.306 415.566 562.306 415.566L559.019 462.133C559.019 462.133 560.663 476.377 570.524 470.35L584.22 418.853C584.22 418.853 579.837 349.824 577.646 347.085C575.455 344.346 561.211 312.571 561.211 312.571L517.383 313.667Z" fill="#2F2E41"/>
<path id="Vector_33" d="M539.023 210.946C547.797 210.946 554.91 203.833 554.91 195.058C554.91 186.284 547.797 179.171 539.023 179.171C530.249 179.171 523.135 186.284 523.135 195.058C523.135 203.833 530.249 210.946 539.023 210.946Z" fill="#FFB9B9"/>
<path id="Vector_34" d="M522.862 234.229C522.862 234.229 528.888 242.995 536.558 236.969C544.227 230.942 548.61 230.394 548.61 230.394L557.924 235.873L555.732 257.239L559.019 316.406C559.019 316.406 519.027 319.693 516.835 315.31C514.644 310.928 519.575 292.301 519.575 292.301L512.453 252.308V234.229H522.862Z" fill="#638EFF"/>
<path id="Vector_35" d="M535.462 250.117C535.462 250.117 525.601 219.985 522.314 219.438C519.027 218.89 509.713 225.464 509.713 225.464C509.713 225.464 496.017 229.847 496.017 232.586C496.017 235.325 498.209 235.325 498.209 235.325L505.878 250.117C505.878 250.117 509.166 263.265 508.07 272.031C507.409 277.299 507.226 282.617 507.522 287.918C507.522 287.918 495.469 360.234 501.496 362.425C507.522 364.616 507.522 366.808 507.522 366.808C507.522 366.808 516.287 371.738 517.931 369.547C519.574 367.356 535.462 273.126 535.462 273.126C535.462 273.126 543.68 257.239 535.462 250.117Z" fill="#575A89"/>
<path id="Vector_36" d="M537.653 250.117C537.653 250.117 542.584 238.612 539.845 230.942C539.845 230.942 542.584 230.394 543.68 228.751C544.775 227.107 543.68 218.89 546.419 218.342C549.158 217.794 569.428 218.342 570.524 219.438C571.62 220.533 574.907 228.203 574.907 228.203H573.263L561.211 247.926C561.211 247.926 567.237 285.179 566.141 291.205C565.046 297.231 582.029 322.432 584.22 324.076C586.411 325.719 596.273 352.016 591.89 354.755C587.507 357.494 549.158 375.025 547.515 366.26C545.871 357.494 534.366 304.901 534.366 304.901C534.366 304.901 533.818 275.866 535.462 268.744C537.106 261.622 537.653 250.117 537.653 250.117Z" fill="#575A89"/>
<path id="Vector_37" d="M563.402 337.772C563.402 337.772 551.897 375.573 563.402 373.93C574.907 372.286 572.167 336.676 572.167 336.676L563.402 337.772Z" fill="#FFB9B9"/>
<path id="Vector_38" d="M539.321 482.97C539.321 482.97 548.404 485.565 547.755 491.404C547.553 493.101 546.906 494.714 545.881 496.081C544.856 497.447 543.488 498.52 541.916 499.189C540.965 499.807 540.214 500.688 539.754 501.724C539.293 502.761 539.143 503.908 539.321 505.028C539.97 508.921 534.131 514.76 524.399 512.165C514.668 509.57 516.614 506.975 516.614 506.975C517.144 504.096 518.772 501.537 521.156 499.838C525.048 497.243 529.59 488.16 529.59 487.511C529.59 486.863 530.887 482.321 530.887 482.321C530.887 482.321 536.077 479.077 539.321 482.97Z" fill="#2F2E41"/>
<path id="Vector_39" d="M558.471 470.35C558.471 470.35 548.61 474.733 550.802 480.211C552.993 485.69 560.115 493.36 561.211 501.577C562.306 509.795 571.62 516.917 578.194 512.534C584.768 508.151 577.098 499.386 577.098 499.386C577.098 499.386 568.88 484.046 568.333 480.759C567.785 477.472 569.428 474.185 566.141 473.089C562.854 471.994 558.471 470.35 558.471 470.35Z" fill="#2F2E41"/>
<path id="Vector_40" opacity="0.1" d="M572.989 233.955C572.989 233.955 571.62 227.655 573.263 231.49C574.907 235.325 586.959 281.892 576.002 309.832C576.002 309.832 574.907 344.346 573.811 344.346C572.715 344.346 559.567 343.798 560.115 339.963C560.663 336.128 561.758 274.222 561.758 270.387C561.758 266.552 563.676 241.625 563.676 241.625L572.989 233.955Z" fill="black"/>
<path id="Vector_41" d="M570.524 224.368C572.28 226.547 573.753 228.941 574.907 231.49C576.55 235.325 588.603 281.892 577.646 309.832C577.646 309.832 576.55 344.346 575.455 344.346C574.359 344.346 561.211 343.798 561.758 339.963C562.306 336.128 563.402 274.222 563.402 270.387C563.402 266.552 560.115 240.804 560.115 240.804L570.524 224.368Z" fill="#575A89"/>
<path id="Vector_42" d="M530.067 167.088C524.319 168.885 520.027 173.581 516.026 178.083C514.471 179.675 513.151 181.482 512.108 183.448C511.092 185.954 510.555 188.629 510.525 191.334C510.259 195.525 510.173 199.723 510.27 203.927C510.362 207.954 510.609 212.083 509.371 215.916C508.174 219.622 505.682 222.755 503.971 226.254C501.241 231.835 500.611 238.607 503.131 244.286C504.518 247.412 506.763 250.072 508.44 253.052C511.406 258.36 512.505 264.509 511.56 270.515L519.449 260.295C524.502 253.75 529.714 246.853 531.136 238.707C533.198 226.892 526.895 215.319 525.652 203.39C525.305 200.064 525.421 196.472 527.304 193.708C530.083 189.627 536.128 188.186 537.799 183.541C538.041 185.486 549.694 191.682 551.097 190.476C551.961 192.806 552.211 195.317 551.826 197.771C551.441 200.225 550.432 202.539 548.896 204.491C547.768 205.892 546.381 207.07 545.281 208.492C542.432 212.176 541.784 217.144 542.186 221.783C542.588 226.423 543.924 230.929 544.63 235.533C545.227 240.116 545.512 244.735 545.483 249.357C545.536 252.556 545.448 256.127 543.204 258.408C546.884 257.119 550.246 255.058 553.065 252.365C554.595 250.699 556.239 249.142 557.984 247.703C561.513 245.157 566.294 244.402 569.173 241.139C571.743 238.225 572.153 233.951 571.549 230.114C570.945 226.276 569.473 222.624 568.732 218.81C567.796 213.959 568.058 208.953 569.495 204.226C570.543 200.793 572.215 197.483 572.42 193.9C572.837 186.59 567.201 180.476 561.782 175.552C553.664 168.177 541.092 163.641 530.067 167.088Z" fill="#2F2E41"/>
</g>
<g id="samolot">
<path id="Vector_43" d="M1020.19 117.367C1015.33 119.16 1006.81 120.627 996.935 121.811C970.096 125.031 933.315 126.175 933.315 126.175C933.315 126.175 744.29 141.854 602.609 83.544C602.609 83.544 582.001 72.7376 601.144 58.2005C604.085 56.0249 607.213 54.1148 610.492 52.4927C610.492 52.4927 610.571 52.4122 610.728 52.2624C612.902 50.2514 615.253 48.4396 617.751 46.8486C625.09 42.1046 637.485 36.476 652.567 39.0253L1024.66 99.2117C1024.66 99.2117 1038.25 110.695 1020.19 117.367Z" fill="#F2F2F2"/>
<path id="Vector_44" d="M946.044 90.0922L1023.94 34.8212L1058.28 40.7589L1024.66 99.211C1024.66 99.211 946.939 99.8294 946.044 90.0922Z" fill="#F2F2F2"/>
<path id="Vector_45" d="M749.923 56.517L905.088 13L930.101 18.226L860.01 49.756L838.1 74.264L749.923 56.517Z" fill="#F2F2F2"/>
<path id="Vector_46" d="M996.935 121.811C970.096 125.031 933.315 126.175 933.315 126.175C933.315 126.175 744.29 141.854 602.609 83.544C602.609 83.544 582.001 72.7376 601.144 58.2005L601.209 58.4662C601.209 58.4662 631.778 79.1279 777.845 96.3797L996.935 121.811Z" fill="#F2F2F2"/>
<path id="Vector_47" d="M971.992 120.616L1041.37 148.94L1058.79 147.005L1017.3 115.82C1017.3 115.82 967.109 105.117 971.992 120.616Z" fill="#F2F2F2"/>
<path id="Vector_48" d="M626.338 61.4917C623.025 61.5496 615.442 55.9959 610.728 52.2624C612.902 50.2514 615.253 48.4396 617.751 46.8486C621.551 49.7653 628.316 54.4881 632.076 54.3199C637.504 54.0769 631.32 61.4055 626.338 61.4917Z" fill="#F2F2F2"/>
<path id="Vector_49" d="M941.496 218.532L896.957 220.86L771.737 136.42L748.49 120.744L737.192 113.125C758.379 95.2185 844.808 119.908 844.808 119.908C846.463 121.305 846.989 123.625 846.913 126.187C846.771 130.989 844.516 136.641 843.646 138.653C843.437 139.138 843.309 139.41 843.309 139.41L941.496 218.532Z" fill="#F2F2F2"/>
<path id="Vector_50" d="M1020.19 117.367C1015.33 119.16 1006.81 120.627 996.935 121.811C970.096 125.031 933.315 126.175 933.315 126.175C933.315 126.175 744.29 141.854 602.609 83.544C602.609 83.544 582.001 72.7376 601.144 58.2005C604.085 56.0249 607.213 54.1148 610.492 52.4927C610.492 52.4927 610.571 52.4122 610.728 52.2624C612.902 50.2514 615.253 48.4396 617.751 46.8486C625.09 42.1046 637.485 36.476 652.567 39.0253L1024.66 99.2117C1024.66 99.2117 1038.25 110.695 1020.19 117.367Z" fill="#3F3D56"/>
<path id="Vector_51" d="M946.044 90.0922L1023.94 34.8212L1058.28 40.7589L1024.66 99.211C1024.66 99.211 946.939 99.8294 946.044 90.0922Z" fill="#3F3D56"/>
<path id="Vector_52" d="M749.923 56.517L905.088 13L930.101 18.226L860.01 49.756L838.1 74.264L749.923 56.517Z" fill="#3F3D56"/>
<path id="Vector_53" d="M996.935 121.811C970.096 125.031 933.315 126.175 933.315 126.175C933.315 126.175 744.29 141.854 602.609 83.544C602.609 83.544 582.001 72.7376 601.144 58.2005L601.209 58.4662C601.209 58.4662 631.778 79.1279 777.845 96.3797L996.935 121.811Z" fill="#638EFF"/>
<path id="Vector_54" d="M971.992 120.616L1041.37 148.94L1058.79 147.005L1017.3 115.82C1017.3 115.82 967.109 105.117 971.992 120.616Z" fill="#3F3D56"/>
<path id="Vector_55" d="M626.338 61.4917C623.025 61.5496 615.442 55.9959 610.728 52.2624C612.902 50.2514 615.253 48.4396 617.751 46.8486C621.551 49.7653 628.316 54.4881 632.076 54.3199C637.504 54.0769 631.32 61.4055 626.338 61.4917Z" fill="#638EFF"/>
<path id="Vector_56" d="M941.496 218.532L896.957 220.86L771.737 136.42L748.49 120.744L737.192 113.125C758.379 95.2185 844.808 119.908 844.808 119.908C846.463 121.305 846.989 123.625 846.913 126.187C846.771 130.989 844.516 136.641 843.646 138.653C843.437 139.138 843.309 139.41 843.309 139.41L941.496 218.532Z" fill="#3F3D56"/>
</g>
</g>
</svg>
